<svg width="351" height="180" viewBox="0 0 351 180" fill="none" xmlns="http://www.w3.org/2000/svg">
<g opacity="0.2">
<path d="M65.4767 20.9749L61.9524 14.8389L65.4767 8.70297H72.5216L76.0459 14.8389L72.5216 20.9749H65.4767Z" stroke="#293649" stroke-miterlimit="10"/>
<path d="M65.4767 33.2468L61.9524 27.1108L65.4767 20.9749H72.5216L76.0459 27.1108L72.5216 33.2468H65.4767Z" stroke="#293649" stroke-miterlimit="10"/>
<path d="M76.0536 27.1108L72.5331 20.9749L76.0536 14.8389H83.1023L86.6228 20.9749L83.1023 27.1108H76.0536Z" stroke="#293649" stroke-miterlimit="10"/>
<path d="M76.0536 39.3827L72.5331 33.2468L76.0536 27.1108H83.1023L86.6228 33.2468L83.1023 39.3827H76.0536Z" stroke="#293649" stroke-miterlimit="10"/>
<path d="M54.8961 39.3827L51.3755 33.2468L54.8961 27.1108H61.9447L65.4652 33.2468L61.9447 39.3827H54.8961Z" stroke="#293649" stroke-miterlimit="10"/>
<path d="M54.8961 51.6546L51.3755 45.5186L54.8961 39.3827H61.9447L65.4652 45.5186L61.9447 51.6546H54.8961Z" stroke="#293649" stroke-miterlimit="10"/>
<path d="M65.4767 45.5186L61.9524 39.3827L65.4767 33.2467H72.5216L76.0459 39.3827L72.5216 45.5186H65.4767Z" stroke="#293649" stroke-miterlimit="10"/>
<path d="M65.4767 57.7906L61.9524 51.6546L65.4767 45.5187H72.5216L76.0459 51.6546L72.5216 57.7906H65.4767Z" stroke="#293649" stroke-miterlimit="10"/>
<path d="M86.6343 33.2468L83.1099 27.1108L86.6343 20.9749H93.6791L97.2034 27.1108L93.6791 33.2468H86.6343Z" stroke="#293649" stroke-miterlimit="10"/>
<path d="M86.6343 45.5186L83.1099 39.3827L86.6343 33.2467H93.6791L97.2034 39.3827L93.6791 45.5186H86.6343Z" stroke="#293649" stroke-miterlimit="10"/>
<path d="M97.2111 39.3827L93.6906 33.2468L97.2111 27.1108H104.26L107.78 33.2468L104.26 39.3827H97.2111Z" stroke="#293649" stroke-miterlimit="10"/>
<path d="M97.2111 51.6546L93.6906 45.5186L97.2111 39.3827H104.26L107.78 45.5186L104.26 51.6546H97.2111Z" stroke="#293649" stroke-miterlimit="10"/>
<path d="M76.0536 51.6546L72.5331 45.5186L76.0536 39.3827H83.1023L86.6228 45.5186L83.1023 51.6546H76.0536Z" stroke="#293649" stroke-miterlimit="10"/>
<path d="M76.0536 63.9265L72.5331 57.7906L76.0536 51.6546H83.1023L86.6228 57.7906L83.1023 63.9265H76.0536Z" stroke="#293649" stroke-miterlimit="10"/>
<path d="M86.6343 57.7906L83.1099 51.6546L86.6343 45.5187H93.6791L97.2034 51.6546L93.6791 57.7906H86.6343Z" stroke="#293649" stroke-miterlimit="10"/>
<path d="M118.369 27.1108L114.844 20.9749L118.369 14.8389H125.413L128.938 20.9749L125.413 27.1108H118.369Z" stroke="#293649" stroke-miterlimit="10"/>
<path d="M118.369 39.3827L114.844 33.2468L118.369 27.1108H125.413L128.938 33.2468L125.413 39.3827H118.369Z" stroke="#293649" stroke-miterlimit="10"/>
<path d="M128.949 33.2468L125.425 27.1108L128.949 20.9749H135.994L139.519 27.1108L135.994 33.2468H128.949Z" stroke="#293649" stroke-miterlimit="10"/>
<path d="M128.949 45.5186L125.425 39.3827L128.949 33.2467H135.994L139.519 39.3827L135.994 45.5186H128.949Z" stroke="#293649" stroke-miterlimit="10"/>
<path d="M107.792 45.5186L104.267 39.3827L107.792 33.2467H114.837L118.361 39.3827L114.837 45.5186H107.792Z" stroke="#293649" stroke-miterlimit="10"/>
<path d="M107.792 57.7906L104.267 51.6546L107.792 45.5187H114.837L118.361 51.6546L114.837 57.7906H107.792Z" stroke="#293649" stroke-miterlimit="10"/>
<path d="M118.369 51.6546L114.844 45.5186L118.369 39.3827H125.413L128.938 45.5186L125.413 51.6546H118.369Z" stroke="#293649" stroke-miterlimit="10"/>
<path d="M118.369 63.9265L114.844 57.7906L118.369 51.6546H125.413L128.938 57.7906L125.413 63.9265H118.369Z" stroke="#293649" stroke-miterlimit="10"/>
<path d="M139.526 39.3827L136.002 33.2468L139.526 27.1108H146.571L150.095 33.2468L146.571 39.3827H139.526Z" stroke="#293649" stroke-miterlimit="10"/>
<path d="M139.526 51.6546L136.002 45.5186L139.526 39.3827H146.571L150.095 45.5186L146.571 51.6546H139.526Z" stroke="#293649" stroke-miterlimit="10"/>
<path d="M150.103 45.5186L146.583 39.3827L150.103 33.2467H157.152L160.672 39.3827L157.152 45.5186H150.103Z" stroke="#293649" stroke-miterlimit="10"/>
<path d="M150.103 57.7906L146.583 51.6546L150.103 45.5187H157.152L160.672 51.6546L157.152 57.7906H150.103Z" stroke="#293649" stroke-miterlimit="10"/>
<path d="M128.949 57.7906L125.425 51.6546L128.949 45.5187H135.994L139.519 51.6546L135.994 57.7906H128.949Z" stroke="#293649" stroke-miterlimit="10"/>
<path d="M128.949 70.0625L125.425 63.9265L128.949 57.7906H135.994L139.519 63.9265L135.994 70.0625H128.949Z" stroke="#293649" stroke-miterlimit="10"/>
<path d="M139.526 63.9265L136.002 57.7906L139.526 51.6546H146.571L150.095 57.7906L146.571 63.9265H139.526Z" stroke="#293649" stroke-miterlimit="10"/>
<path d="M139.526 76.1984L136.002 70.0625L139.526 63.9265H146.571L150.095 70.0625L146.571 76.1984H139.526Z" stroke="#293649" stroke-miterlimit="10"/>
<path d="M107.792 20.9749L104.267 14.8389L107.792 8.70297H114.837L118.361 14.8389L114.837 20.9749H107.792Z" stroke="#293649" stroke-miterlimit="10"/>
<path d="M97.2111 27.1108L93.6906 20.9749L97.2111 14.8389H104.26L107.78 20.9749L104.26 27.1108H97.2111Z" stroke="#293649" stroke-miterlimit="10"/>
<path d="M107.792 33.2468L104.267 27.1108L107.792 20.9749H114.837L118.361 27.1108L114.837 33.2468H107.792Z" stroke="#293649" stroke-miterlimit="10"/>
<path d="M97.2111 63.9265L93.6906 57.7906L97.2111 51.6546H104.26L107.78 57.7906L104.26 63.9265H97.2111Z" stroke="#293649" stroke-miterlimit="10"/>
<path d="M107.792 70.0625L104.267 63.9265L107.792 57.7906H114.837L118.361 63.9265L114.837 70.0625H107.792Z" stroke="#293649" stroke-miterlimit="10"/>
<path d="M76.0536 100.742L72.5331 94.6063L76.0536 88.4703H83.1023L86.6228 94.6063L83.1023 100.742H76.0536Z" stroke="#2ACA4B" stroke-miterlimit="10"/>
<path d="M193.4 93.7817L189.879 87.6458L193.4 81.5098H200.449L203.969 87.6458L200.449 93.7817H193.4Z" stroke="#F9A5E4" stroke-miterlimit="10"/>
<path d="M193.4 106.054L189.879 99.9178L193.4 93.7818H200.449L203.969 99.9178L200.449 106.054H193.4Z" stroke="#F9A5E4" stroke-miterlimit="10"/>
<path d="M203.981 99.9177L200.456 93.7817L203.981 87.6458H211.025L214.55 93.7817L211.025 99.9177H203.981Z" stroke="#F9A5E4" stroke-miterlimit="10"/>
<path d="M203.981 112.19L200.456 106.054L203.981 99.9177H211.025L214.55 106.054L211.025 112.19H203.981Z" stroke="#F9A5E4" stroke-miterlimit="10"/>
<path d="M182.823 112.19L179.299 106.054L182.823 99.9177H189.868L193.392 106.054L189.868 112.19H182.823Z" stroke="#F9A5E4" stroke-miterlimit="10"/>
<path d="M182.823 124.462L179.299 118.326L182.823 112.19H189.868L193.392 118.326L189.868 124.462H182.823Z" stroke="#F9A5E4" stroke-miterlimit="10"/>
<path d="M193.4 118.326L189.879 112.19L193.4 106.054H200.449L203.969 112.19L200.449 118.326H193.4Z" stroke="#F9A5E4" stroke-miterlimit="10"/>
<path d="M193.4 130.597L189.879 124.461L193.4 118.326H200.449L203.969 124.461L200.449 130.597H193.4Z" stroke="#F9A5E4" stroke-miterlimit="10"/>
<path d="M214.557 106.054L211.037 99.9178L214.557 93.7818H221.606L225.127 99.9178L221.606 106.054H214.557Z" stroke="#F9A5E4" stroke-miterlimit="10"/>
<path d="M214.557 118.326L211.037 112.19L214.557 106.054H221.606L225.127 112.19L221.606 118.326H214.557Z" stroke="#F9A5E4" stroke-miterlimit="10"/>
<path d="M225.138 112.19L221.614 106.054L225.138 99.9177H232.183L235.707 106.054L232.183 112.19H225.138Z" stroke="#F9A5E4" stroke-miterlimit="10"/>
<path d="M225.138 124.462L221.614 118.326L225.138 112.19H232.183L235.707 118.326L232.183 124.462H225.138Z" stroke="#F9A5E4" stroke-miterlimit="10"/>
<path d="M203.981 124.462L200.456 118.326L203.981 112.19H211.025L214.55 118.326L211.025 124.462H203.981Z" stroke="#F9A5E4" stroke-miterlimit="10"/>
<path d="M203.981 136.733L200.456 130.597L203.981 124.462H211.025L214.55 130.597L211.025 136.733H203.981Z" stroke="#F9A5E4" stroke-miterlimit="10"/>
<path d="M214.557 130.597L211.037 124.461L214.557 118.326H221.606L225.127 124.461L221.606 130.597H214.557Z" stroke="#F9A5E4" stroke-miterlimit="10"/>
<path d="M214.557 142.869L211.037 136.733L214.557 130.598H221.606L225.127 136.733L221.606 142.869H214.557Z" stroke="#F9A5E4" stroke-miterlimit="10"/>
<path d="M246.296 99.9177L242.771 93.7817L246.296 87.6458H253.34L256.865 93.7817L253.34 99.9177H246.296Z" stroke="#F9A5E4" stroke-miterlimit="10"/>
<path d="M246.296 112.19L242.771 106.054L246.296 99.9177H253.34L256.865 106.054L253.34 112.19H246.296Z" stroke="#F9A5E4" stroke-miterlimit="10"/>
<path d="M256.872 106.054L253.352 99.9178L256.872 93.7818H263.921L267.442 99.9178L263.921 106.054H256.872Z" stroke="#F9A5E4" stroke-miterlimit="10"/>
<path d="M256.872 118.326L253.352 112.19L256.872 106.054H263.921L267.442 112.19L263.921 118.326H256.872Z" stroke="#F9A5E4" stroke-miterlimit="10"/>
<path d="M235.715 118.326L232.194 112.19L235.715 106.054H242.764L246.284 112.19L242.764 118.326H235.715Z" stroke="#F9A5E4" stroke-miterlimit="10"/>
<path d="M235.715 130.597L232.194 124.461L235.715 118.326H242.764L246.284 124.461L242.764 130.597H235.715Z" stroke="#F9A5E4" stroke-miterlimit="10"/>
<path d="M246.296 124.462L242.771 118.326L246.296 112.19H253.34L256.865 118.326L253.34 124.462H246.296Z" stroke="#F9A5E4" stroke-miterlimit="10"/>
<path d="M246.296 136.733L242.771 130.597L246.296 124.462H253.34L256.865 130.597L253.34 136.733H246.296Z" stroke="#F9A5E4" stroke-miterlimit="10"/>
<path d="M267.453 112.19L263.929 106.054L267.453 99.9177H274.498L278.022 106.054L274.498 112.19H267.453Z" stroke="#F9A5E4" stroke-miterlimit="10"/>
<path d="M267.453 124.462L263.929 118.326L267.453 112.19H274.498L278.022 118.326L274.498 124.462H267.453Z" stroke="#F9A5E4" stroke-miterlimit="10"/>
<path d="M278.03 118.326L274.509 112.19L278.03 106.054H285.079L288.599 112.19L285.079 118.326H278.03Z" stroke="#F9A5E4" stroke-miterlimit="10"/>
<path d="M278.03 130.597L274.509 124.461L278.03 118.326H285.079L288.599 124.461L285.079 130.597H278.03Z" stroke="#F9A5E4" stroke-miterlimit="10"/>
<path d="M256.872 130.597L253.352 124.461L256.872 118.326H263.921L267.442 124.461L263.921 130.597H256.872Z" stroke="#F9A5E4" stroke-miterlimit="10"/>
<path d="M256.872 142.869L253.352 136.733L256.872 130.598H263.921L267.442 136.733L263.921 142.869H256.872Z" stroke="#F9A5E4" stroke-miterlimit="10"/>
<path d="M267.453 136.733L263.929 130.597L267.453 124.462H274.498L278.022 130.597L274.498 136.733H267.453Z" stroke="#F9A5E4" stroke-miterlimit="10"/>
<path d="M267.453 149.005L263.929 142.869L267.453 136.733H274.498L278.022 142.869L274.498 149.005H267.453Z" stroke="#F9A5E4" stroke-miterlimit="10"/>
<path d="M235.715 93.7817L232.194 87.6458L235.715 81.5098H242.764L246.284 87.6458L242.764 93.7817H235.715Z" stroke="#F9A5E4" stroke-miterlimit="10"/>
<path d="M225.138 99.9177L221.614 93.7817L225.138 87.6458H232.183L235.707 93.7817L232.183 99.9177H225.138Z" stroke="#F9A5E4" stroke-miterlimit="10"/>
<path d="M235.715 106.054L232.194 99.9178L235.715 93.7818H242.764L246.284 99.9178L242.764 106.054H235.715Z" stroke="#F9A5E4" stroke-miterlimit="10"/>
<path d="M225.138 136.733L221.614 130.597L225.138 124.462H232.183L235.707 130.597L232.183 136.733H225.138Z" stroke="#F9A5E4" stroke-miterlimit="10"/>
<path d="M225.138 149.005L221.614 142.869L225.138 136.733H232.183L235.707 142.869L232.183 149.005H225.138Z" stroke="#F9A5E4" stroke-miterlimit="10"/>
<path d="M235.715 142.869L232.194 136.733L235.715 130.598H242.764L246.284 136.733L242.764 142.869H235.715Z" fill="#F9A5E4"/>
<path d="M193.4 142.869L189.879 136.733L193.4 130.598H200.449L203.969 136.733L200.449 142.869H193.4Z" stroke="#F9A5E4" stroke-miterlimit="10"/>
<path d="M203.981 149.005L200.456 142.869L203.981 136.733H211.025L214.55 142.869L211.025 149.005H203.981Z" stroke="#F9A5E4" stroke-miterlimit="10"/>
<path d="M44.3192 70.0625L40.7949 63.9265L44.3192 57.7906H51.364L54.8884 63.9265L51.364 70.0625H44.3192Z" stroke="#2ACA4B" stroke-miterlimit="10"/>
<path d="M44.3192 82.3343L40.7949 76.1984L44.3192 70.0624H51.364L54.8884 76.1984L51.364 82.3343H44.3192Z" stroke="#2ACA4B" stroke-miterlimit="10"/>
<path d="M54.8961 76.1984L51.3755 70.0625L54.8961 63.9265H61.9447L65.4652 70.0625L61.9447 76.1984H54.8961Z" stroke="#2ACA4B" stroke-miterlimit="10"/>
<path d="M54.8961 88.4703L51.3755 82.3344L54.8961 76.1984H61.9447L65.4652 82.3344L61.9447 88.4703H54.8961Z" stroke="#2ACA4B" stroke-miterlimit="10"/>
<path d="M33.7385 88.4703L30.218 82.3344L33.7385 76.1984H40.7872L44.3077 82.3344L40.7872 88.4703H33.7385Z" stroke="#2ACA4B" stroke-miterlimit="10"/>
<path d="M33.7385 100.742L30.218 94.6063L33.7385 88.4703H40.7872L44.3077 94.6063L40.7872 100.742H33.7385Z" stroke="#2ACA4B" stroke-miterlimit="10"/>
<path d="M44.3192 106.878L40.7949 100.742L44.3192 94.6063H51.364L54.8884 100.742L51.364 106.878H44.3192Z" stroke="#2ACA4B" stroke-miterlimit="10"/>
<path d="M65.4767 82.3343L61.9524 76.1984L65.4767 70.0624H72.5216L76.0459 76.1984L72.5216 82.3343H65.4767Z" stroke="#2ACA4B" stroke-miterlimit="10"/>
<path d="M65.4767 94.6063L61.9524 88.4704L65.4767 82.3344H72.5216L76.0459 88.4704L72.5216 94.6063H65.4767Z" stroke="#2ACA4B" stroke-miterlimit="10"/>
<path d="M76.0536 88.4703L72.5331 82.3344L76.0536 76.1984H83.1023L86.6228 82.3344L83.1023 88.4703H76.0536Z" stroke="#2ACA4B" stroke-miterlimit="10"/>
<path d="M54.8961 113.014L51.3755 106.878L54.8961 100.742H61.9447L65.4652 106.878L61.9447 113.014H54.8961Z" stroke="#2ACA4B" stroke-miterlimit="10"/>
<path d="M65.4767 106.878L61.9524 100.742L65.4767 94.6063H72.5216L76.0459 100.742L72.5216 106.878H65.4767Z" stroke="#2ACA4B" stroke-miterlimit="10"/>
<path d="M97.2111 76.1984L93.6906 70.0625L97.2111 63.9265H104.26L107.78 70.0625L104.26 76.1984H97.2111Z" stroke="#2ACA4B" stroke-miterlimit="10"/>
<path d="M107.792 82.3343L104.267 76.1984L107.792 70.0624H114.837L118.361 76.1984L114.837 82.3343H107.792Z" stroke="#2ACA4B" stroke-miterlimit="10"/>
<path d="M107.792 94.6063L104.267 88.4704L107.792 82.3344H114.837L118.361 88.4704L114.837 94.6063H107.792Z" stroke="#2ACA4B" stroke-miterlimit="10"/>
<path d="M86.6343 106.878L83.1099 100.742L86.6343 94.6063H93.6791L97.2034 100.742L93.6791 106.878H86.6343Z" stroke="#2ACA4B" stroke-miterlimit="10"/>
<path d="M97.2111 100.742L93.6906 94.6063L97.2111 88.4703H104.26L107.78 94.6063L104.26 100.742H97.2111Z" stroke="#2ACA4B" stroke-miterlimit="10"/>
<path d="M97.2111 113.014L93.6906 106.878L97.2111 100.742H104.26L107.78 106.878L104.26 113.014H97.2111Z" stroke="#2ACA4B" stroke-miterlimit="10"/>
<path d="M118.369 88.4703L114.844 82.3344L118.369 76.1984H125.413L128.938 82.3344L125.413 88.4703H118.369Z" stroke="#2ACA4B" stroke-miterlimit="10"/>
<path d="M118.369 100.742L114.844 94.6063L118.369 88.4703H125.413L128.938 94.6063L125.413 100.742H118.369Z" stroke="#2ACA4B" stroke-miterlimit="10"/>
<path d="M128.949 94.6063L125.425 88.4704L128.949 82.3344H135.994L139.519 88.4704L135.994 94.6063H128.949Z" stroke="#2ACA4B" stroke-miterlimit="10"/>
<path d="M128.949 106.878L125.425 100.742L128.949 94.6063H135.994L139.519 100.742L135.994 106.878H128.949Z" stroke="#2ACA4B" stroke-miterlimit="10"/>
<path d="M107.792 106.878L104.267 100.742L107.792 94.6063H114.837L118.361 100.742L114.837 106.878H107.792Z" stroke="#2ACA4B" stroke-miterlimit="10"/>
<path d="M107.792 119.15L104.267 113.014L107.792 106.878H114.837L118.361 113.014L114.837 119.15H107.792Z" stroke="#2ACA4B" stroke-miterlimit="10"/>
<path d="M118.369 113.014L114.844 106.878L118.369 100.742H125.413L128.938 106.878L125.413 113.014H118.369Z" stroke="#2ACA4B" stroke-miterlimit="10"/>
<path d="M118.369 125.286L114.844 119.15L118.369 113.014H125.413L128.938 119.15L125.413 125.286H118.369Z" stroke="#2ACA4B" stroke-miterlimit="10"/>
<path d="M86.6343 70.0625L83.1099 63.9265L86.6343 57.7906H93.6791L97.2034 63.9265L93.6791 70.0625H86.6343Z" stroke="#2ACA4B" stroke-miterlimit="10"/>
<path d="M76.0536 76.1984L72.5331 70.0625L76.0536 63.9265H83.1023L86.6228 70.0625L83.1023 76.1984H76.0536Z" stroke="#2ACA4B" stroke-miterlimit="10"/>
<path d="M76.0536 113.014L72.5331 106.878L76.0536 100.742H83.1023L86.6228 106.878L83.1023 113.014H76.0536Z" stroke="#2ACA4B" stroke-miterlimit="10"/>
<path d="M76.0536 125.286L72.5331 119.15L76.0536 113.014H83.1023L86.6228 119.15L83.1023 125.286H76.0536Z" stroke="#2ACA4B" stroke-miterlimit="10"/>
<path d="M86.6343 119.15L83.1099 113.014L86.6343 106.878H93.6791L97.2034 113.014L93.6791 119.15H86.6343Z" stroke="#2ACA4B" stroke-miterlimit="10"/>
<path d="M44.3192 119.15L40.7949 113.014L44.3192 106.878H51.364L54.8884 113.014L51.364 119.15H44.3192Z" stroke="#2ACA4B" stroke-miterlimit="10"/>
<path d="M54.8961 125.286L51.3755 119.15L54.8961 113.014H61.9447L65.4652 119.15L61.9447 125.286H54.8961Z" stroke="#2ACA4B" stroke-miterlimit="10"/>
<path d="M349.625 63.7271L335.282 71.9608L320.939 63.7271V47.2598L335.282 39.0222L349.625 47.2598V63.7271Z" stroke="#DA514A" stroke-miterlimit="10"/>
<path d="M300.779 151.272L294.375 154.95L287.97 151.272V143.92L294.375 140.242L300.779 143.92V151.272Z" fill="#007CFF"/>
<path d="M22.4599 117.233L18.9355 111.097L22.4599 104.961H29.5047L33.029 111.097L29.5047 117.233H22.4599Z" stroke="#2ACA4B" stroke-miterlimit="10"/>
<path d="M3.64934 12.5034L0.125 6.36746L3.64934 0.231506H10.6942L14.2185 6.36746L10.6942 12.5034H3.64934Z" fill="#F9A5E4"/>
<path d="M39.1381 170.531L24.7954 178.769L10.4564 170.531V154.064L24.7954 145.83L39.1381 154.064V170.531Z" stroke="#DA514A" stroke-miterlimit="10"/>
<path d="M45.3125 158.62L38.9081 162.297L32.5037 158.62V151.268L38.9081 147.59L45.3125 151.268V158.62Z" fill="#007CFF"/>
</g>
</svg>
