<svg width="352" height="189" viewBox="0 0 352 189" fill="none" xmlns="http://www.w3.org/2000/svg">
<rect x="0.625" width="350.5" height="189" fill="white"/>
<g opacity="0.2">
<path d="M66.4767 25.9749L62.9524 19.8389L66.4767 13.703H73.5216L77.0459 19.8389L73.5216 25.9749H66.4767Z" stroke="#293649" stroke-miterlimit="10"/>
<path d="M66.4767 38.2468L62.9524 32.1108L66.4767 25.9749H73.5216L77.0459 32.1108L73.5216 38.2468H66.4767Z" stroke="#293649" stroke-miterlimit="10"/>
<path d="M77.0536 32.1108L73.5331 25.9749L77.0536 19.8389H84.1023L87.6228 25.9749L84.1023 32.1108H77.0536Z" stroke="#293649" stroke-miterlimit="10"/>
<path d="M77.0536 44.3827L73.5331 38.2468L77.0536 32.1108H84.1023L87.6228 38.2468L84.1023 44.3827H77.0536Z" stroke="#293649" stroke-miterlimit="10"/>
<path d="M55.8961 44.3827L52.3755 38.2468L55.8961 32.1108H62.9447L66.4652 38.2468L62.9447 44.3827H55.8961Z" stroke="#293649" stroke-miterlimit="10"/>
<path d="M55.8961 56.6546L52.3755 50.5186L55.8961 44.3827H62.9447L66.4652 50.5186L62.9447 56.6546H55.8961Z" stroke="#293649" stroke-miterlimit="10"/>
<path d="M66.4767 50.5186L62.9524 44.3827L66.4767 38.2467H73.5216L77.0459 44.3827L73.5216 50.5186H66.4767Z" stroke="#293649" stroke-miterlimit="10"/>
<path d="M66.4767 62.7906L62.9524 56.6546L66.4767 50.5187H73.5216L77.0459 56.6546L73.5216 62.7906H66.4767Z" stroke="#293649" stroke-miterlimit="10"/>
<path d="M87.6343 38.2468L84.1099 32.1108L87.6343 25.9749H94.6791L98.2034 32.1108L94.6791 38.2468H87.6343Z" stroke="#293649" stroke-miterlimit="10"/>
<path d="M87.6343 50.5186L84.1099 44.3827L87.6343 38.2467H94.6791L98.2034 44.3827L94.6791 50.5186H87.6343Z" stroke="#293649" stroke-miterlimit="10"/>
<path d="M98.2111 44.3827L94.6906 38.2468L98.2111 32.1108H105.26L108.78 38.2468L105.26 44.3827H98.2111Z" stroke="#293649" stroke-miterlimit="10"/>
<path d="M98.2111 56.6546L94.6906 50.5186L98.2111 44.3827H105.26L108.78 50.5186L105.26 56.6546H98.2111Z" stroke="#293649" stroke-miterlimit="10"/>
<path d="M77.0536 56.6546L73.5331 50.5186L77.0536 44.3827H84.1023L87.6228 50.5186L84.1023 56.6546H77.0536Z" stroke="#293649" stroke-miterlimit="10"/>
<path d="M77.0536 68.9265L73.5331 62.7906L77.0536 56.6546H84.1023L87.6228 62.7906L84.1023 68.9265H77.0536Z" stroke="#293649" stroke-miterlimit="10"/>
<path d="M87.6343 62.7906L84.1099 56.6546L87.6343 50.5187H94.6791L98.2034 56.6546L94.6791 62.7906H87.6343Z" stroke="#293649" stroke-miterlimit="10"/>
<path d="M119.369 32.1108L115.844 25.9749L119.369 19.8389H126.413L129.938 25.9749L126.413 32.1108H119.369Z" stroke="#293649" stroke-miterlimit="10"/>
<path d="M119.369 44.3827L115.844 38.2468L119.369 32.1108H126.413L129.938 38.2468L126.413 44.3827H119.369Z" stroke="#293649" stroke-miterlimit="10"/>
<path d="M129.949 38.2468L126.425 32.1108L129.949 25.9749H136.994L140.519 32.1108L136.994 38.2468H129.949Z" stroke="#293649" stroke-miterlimit="10"/>
<path d="M129.949 50.5186L126.425 44.3827L129.949 38.2467H136.994L140.519 44.3827L136.994 50.5186H129.949Z" stroke="#293649" stroke-miterlimit="10"/>
<path d="M108.792 50.5186L105.267 44.3827L108.792 38.2467H115.837L119.361 44.3827L115.837 50.5186H108.792Z" stroke="#293649" stroke-miterlimit="10"/>
<path d="M108.792 62.7906L105.267 56.6546L108.792 50.5187H115.837L119.361 56.6546L115.837 62.7906H108.792Z" stroke="#293649" stroke-miterlimit="10"/>
<path d="M119.369 56.6546L115.844 50.5186L119.369 44.3827H126.413L129.938 50.5186L126.413 56.6546H119.369Z" stroke="#293649" stroke-miterlimit="10"/>
<path d="M119.369 68.9265L115.844 62.7906L119.369 56.6546H126.413L129.938 62.7906L126.413 68.9265H119.369Z" stroke="#293649" stroke-miterlimit="10"/>
<path d="M140.526 44.3827L137.002 38.2468L140.526 32.1108H147.571L151.095 38.2468L147.571 44.3827H140.526Z" stroke="#293649" stroke-miterlimit="10"/>
<path d="M140.526 56.6546L137.002 50.5186L140.526 44.3827H147.571L151.095 50.5186L147.571 56.6546H140.526Z" stroke="#293649" stroke-miterlimit="10"/>
<path d="M151.103 50.5186L147.583 44.3827L151.103 38.2467H158.152L161.672 44.3827L158.152 50.5186H151.103Z" stroke="#293649" stroke-miterlimit="10"/>
<path d="M151.103 62.7906L147.583 56.6546L151.103 50.5187H158.152L161.672 56.6546L158.152 62.7906H151.103Z" stroke="#293649" stroke-miterlimit="10"/>
<path d="M129.949 62.7906L126.425 56.6546L129.949 50.5187H136.994L140.519 56.6546L136.994 62.7906H129.949Z" stroke="#293649" stroke-miterlimit="10"/>
<path d="M129.949 75.0625L126.425 68.9265L129.949 62.7906H136.994L140.519 68.9265L136.994 75.0625H129.949Z" stroke="#293649" stroke-miterlimit="10"/>
<path d="M140.526 68.9265L137.002 62.7906L140.526 56.6546H147.571L151.095 62.7906L147.571 68.9265H140.526Z" stroke="#293649" stroke-miterlimit="10"/>
<path d="M140.526 81.1984L137.002 75.0625L140.526 68.9265H147.571L151.095 75.0625L147.571 81.1984H140.526Z" stroke="#293649" stroke-miterlimit="10"/>
<path d="M108.792 25.9749L105.267 19.8389L108.792 13.703H115.837L119.361 19.8389L115.837 25.9749H108.792Z" stroke="#293649" stroke-miterlimit="10"/>
<path d="M98.2111 32.1108L94.6906 25.9749L98.2111 19.8389H105.26L108.78 25.9749L105.26 32.1108H98.2111Z" stroke="#293649" stroke-miterlimit="10"/>
<path d="M108.792 38.2468L105.267 32.1108L108.792 25.9749H115.837L119.361 32.1108L115.837 38.2468H108.792Z" stroke="#293649" stroke-miterlimit="10"/>
<path d="M98.2111 68.9265L94.6906 62.7906L98.2111 56.6546H105.26L108.78 62.7906L105.26 68.9265H98.2111Z" stroke="#293649" stroke-miterlimit="10"/>
<path d="M108.792 75.0625L105.267 68.9265L108.792 62.7906H115.837L119.361 68.9265L115.837 75.0625H108.792Z" stroke="#293649" stroke-miterlimit="10"/>
<path d="M77.0536 105.742L73.5331 99.6063L77.0536 93.4703H84.1023L87.6228 99.6063L84.1023 105.742H77.0536Z" stroke="#2ACA4B" stroke-miterlimit="10"/>
<path d="M194.4 98.7817L190.879 92.6458L194.4 86.5098H201.449L204.969 92.6458L201.449 98.7817H194.4Z" stroke="#F9A5E4" stroke-miterlimit="10"/>
<path d="M194.4 111.054L190.879 104.918L194.4 98.7818H201.449L204.969 104.918L201.449 111.054H194.4Z" stroke="#F9A5E4" stroke-miterlimit="10"/>
<path d="M204.981 104.918L201.456 98.7817L204.981 92.6458H212.025L215.55 98.7817L212.025 104.918H204.981Z" stroke="#F9A5E4" stroke-miterlimit="10"/>
<path d="M204.981 117.19L201.456 111.054L204.981 104.918H212.025L215.55 111.054L212.025 117.19H204.981Z" stroke="#F9A5E4" stroke-miterlimit="10"/>
<path d="M183.823 117.19L180.299 111.054L183.823 104.918H190.868L194.392 111.054L190.868 117.19H183.823Z" stroke="#F9A5E4" stroke-miterlimit="10"/>
<path d="M183.823 129.462L180.299 123.326L183.823 117.19H190.868L194.392 123.326L190.868 129.462H183.823Z" stroke="#F9A5E4" stroke-miterlimit="10"/>
<path d="M194.4 123.326L190.879 117.19L194.4 111.054H201.449L204.969 117.19L201.449 123.326H194.4Z" stroke="#F9A5E4" stroke-miterlimit="10"/>
<path d="M194.4 135.597L190.879 129.461L194.4 123.326H201.449L204.969 129.461L201.449 135.597H194.4Z" stroke="#F9A5E4" stroke-miterlimit="10"/>
<path d="M215.557 111.054L212.037 104.918L215.557 98.7818H222.606L226.127 104.918L222.606 111.054H215.557Z" stroke="#F9A5E4" stroke-miterlimit="10"/>
<path d="M215.557 123.326L212.037 117.19L215.557 111.054H222.606L226.127 117.19L222.606 123.326H215.557Z" stroke="#F9A5E4" stroke-miterlimit="10"/>
<path d="M226.138 117.19L222.614 111.054L226.138 104.918H233.183L236.707 111.054L233.183 117.19H226.138Z" stroke="#F9A5E4" stroke-miterlimit="10"/>
<path d="M226.138 129.462L222.614 123.326L226.138 117.19H233.183L236.707 123.326L233.183 129.462H226.138Z" stroke="#F9A5E4" stroke-miterlimit="10"/>
<path d="M204.981 129.462L201.456 123.326L204.981 117.19H212.025L215.55 123.326L212.025 129.462H204.981Z" stroke="#F9A5E4" stroke-miterlimit="10"/>
<path d="M204.981 141.733L201.456 135.597L204.981 129.462H212.025L215.55 135.597L212.025 141.733H204.981Z" stroke="#F9A5E4" stroke-miterlimit="10"/>
<path d="M215.557 135.597L212.037 129.461L215.557 123.326H222.606L226.127 129.461L222.606 135.597H215.557Z" stroke="#F9A5E4" stroke-miterlimit="10"/>
<path d="M215.557 147.869L212.037 141.733L215.557 135.598H222.606L226.127 141.733L222.606 147.869H215.557Z" stroke="#F9A5E4" stroke-miterlimit="10"/>
<path d="M247.296 104.918L243.771 98.7817L247.296 92.6458H254.34L257.865 98.7817L254.34 104.918H247.296Z" stroke="#F9A5E4" stroke-miterlimit="10"/>
<path d="M247.296 117.19L243.771 111.054L247.296 104.918H254.34L257.865 111.054L254.34 117.19H247.296Z" stroke="#F9A5E4" stroke-miterlimit="10"/>
<path d="M257.872 111.054L254.352 104.918L257.872 98.7818H264.921L268.442 104.918L264.921 111.054H257.872Z" stroke="#F9A5E4" stroke-miterlimit="10"/>
<path d="M257.872 123.326L254.352 117.19L257.872 111.054H264.921L268.442 117.19L264.921 123.326H257.872Z" stroke="#F9A5E4" stroke-miterlimit="10"/>
<path d="M236.715 123.326L233.194 117.19L236.715 111.054H243.764L247.284 117.19L243.764 123.326H236.715Z" stroke="#F9A5E4" stroke-miterlimit="10"/>
<path d="M236.715 135.597L233.194 129.461L236.715 123.326H243.764L247.284 129.461L243.764 135.597H236.715Z" stroke="#F9A5E4" stroke-miterlimit="10"/>
<path d="M247.296 129.462L243.771 123.326L247.296 117.19H254.34L257.865 123.326L254.34 129.462H247.296Z" stroke="#F9A5E4" stroke-miterlimit="10"/>
<path d="M247.296 141.733L243.771 135.597L247.296 129.462H254.34L257.865 135.597L254.34 141.733H247.296Z" stroke="#F9A5E4" stroke-miterlimit="10"/>
<path d="M268.453 117.19L264.929 111.054L268.453 104.918H275.498L279.022 111.054L275.498 117.19H268.453Z" stroke="#F9A5E4" stroke-miterlimit="10"/>
<path d="M268.453 129.462L264.929 123.326L268.453 117.19H275.498L279.022 123.326L275.498 129.462H268.453Z" stroke="#F9A5E4" stroke-miterlimit="10"/>
<path d="M279.03 123.326L275.509 117.19L279.03 111.054H286.079L289.599 117.19L286.079 123.326H279.03Z" stroke="#F9A5E4" stroke-miterlimit="10"/>
<path d="M279.03 135.597L275.509 129.461L279.03 123.326H286.079L289.599 129.461L286.079 135.597H279.03Z" stroke="#F9A5E4" stroke-miterlimit="10"/>
<path d="M257.872 135.597L254.352 129.461L257.872 123.326H264.921L268.442 129.461L264.921 135.597H257.872Z" stroke="#F9A5E4" stroke-miterlimit="10"/>
<path d="M257.872 147.869L254.352 141.733L257.872 135.598H264.921L268.442 141.733L264.921 147.869H257.872Z" stroke="#F9A5E4" stroke-miterlimit="10"/>
<path d="M268.453 141.733L264.929 135.597L268.453 129.462H275.498L279.022 135.597L275.498 141.733H268.453Z" stroke="#F9A5E4" stroke-miterlimit="10"/>
<path d="M268.453 154.005L264.929 147.869L268.453 141.733H275.498L279.022 147.869L275.498 154.005H268.453Z" stroke="#F9A5E4" stroke-miterlimit="10"/>
<path d="M236.715 98.7817L233.194 92.6458L236.715 86.5098H243.764L247.284 92.6458L243.764 98.7817H236.715Z" stroke="#F9A5E4" stroke-miterlimit="10"/>
<path d="M226.138 104.918L222.614 98.7817L226.138 92.6458H233.183L236.707 98.7817L233.183 104.918H226.138Z" stroke="#F9A5E4" stroke-miterlimit="10"/>
<path d="M236.715 111.054L233.194 104.918L236.715 98.7818H243.764L247.284 104.918L243.764 111.054H236.715Z" stroke="#F9A5E4" stroke-miterlimit="10"/>
<path d="M226.138 141.733L222.614 135.597L226.138 129.462H233.183L236.707 135.597L233.183 141.733H226.138Z" stroke="#F9A5E4" stroke-miterlimit="10"/>
<path d="M226.138 154.005L222.614 147.869L226.138 141.733H233.183L236.707 147.869L233.183 154.005H226.138Z" stroke="#F9A5E4" stroke-miterlimit="10"/>
<path d="M236.715 147.869L233.194 141.733L236.715 135.598H243.764L247.284 141.733L243.764 147.869H236.715Z" fill="#F9A5E4"/>
<path d="M194.4 147.869L190.879 141.733L194.4 135.598H201.449L204.969 141.733L201.449 147.869H194.4Z" stroke="#F9A5E4" stroke-miterlimit="10"/>
<path d="M204.981 154.005L201.456 147.869L204.981 141.733H212.025L215.55 147.869L212.025 154.005H204.981Z" stroke="#F9A5E4" stroke-miterlimit="10"/>
<path d="M45.3192 75.0625L41.7949 68.9265L45.3192 62.7906H52.364L55.8884 68.9265L52.364 75.0625H45.3192Z" stroke="#2ACA4B" stroke-miterlimit="10"/>
<path d="M45.3192 87.3343L41.7949 81.1984L45.3192 75.0624H52.364L55.8884 81.1984L52.364 87.3343H45.3192Z" stroke="#2ACA4B" stroke-miterlimit="10"/>
<path d="M55.8961 81.1984L52.3755 75.0625L55.8961 68.9265H62.9447L66.4652 75.0625L62.9447 81.1984H55.8961Z" stroke="#2ACA4B" stroke-miterlimit="10"/>
<path d="M55.8961 93.4703L52.3755 87.3344L55.8961 81.1984H62.9447L66.4652 87.3344L62.9447 93.4703H55.8961Z" stroke="#2ACA4B" stroke-miterlimit="10"/>
<path d="M34.7385 93.4703L31.218 87.3344L34.7385 81.1984H41.7872L45.3077 87.3344L41.7872 93.4703H34.7385Z" stroke="#2ACA4B" stroke-miterlimit="10"/>
<path d="M34.7385 105.742L31.218 99.6063L34.7385 93.4703H41.7872L45.3077 99.6063L41.7872 105.742H34.7385Z" stroke="#2ACA4B" stroke-miterlimit="10"/>
<path d="M45.3192 111.878L41.7949 105.742L45.3192 99.6063H52.364L55.8884 105.742L52.364 111.878H45.3192Z" stroke="#2ACA4B" stroke-miterlimit="10"/>
<path d="M66.4767 87.3343L62.9524 81.1984L66.4767 75.0624H73.5216L77.0459 81.1984L73.5216 87.3343H66.4767Z" stroke="#2ACA4B" stroke-miterlimit="10"/>
<path d="M66.4767 99.6063L62.9524 93.4704L66.4767 87.3344H73.5216L77.0459 93.4704L73.5216 99.6063H66.4767Z" stroke="#2ACA4B" stroke-miterlimit="10"/>
<path d="M77.0536 93.4703L73.5331 87.3344L77.0536 81.1984H84.1023L87.6228 87.3344L84.1023 93.4703H77.0536Z" stroke="#2ACA4B" stroke-miterlimit="10"/>
<path d="M55.8961 118.014L52.3755 111.878L55.8961 105.742H62.9447L66.4652 111.878L62.9447 118.014H55.8961Z" stroke="#2ACA4B" stroke-miterlimit="10"/>
<path d="M66.4767 111.878L62.9524 105.742L66.4767 99.6063H73.5216L77.0459 105.742L73.5216 111.878H66.4767Z" stroke="#2ACA4B" stroke-miterlimit="10"/>
<path d="M98.2111 81.1984L94.6906 75.0625L98.2111 68.9265H105.26L108.78 75.0625L105.26 81.1984H98.2111Z" stroke="#2ACA4B" stroke-miterlimit="10"/>
<path d="M108.792 87.3343L105.267 81.1984L108.792 75.0624H115.837L119.361 81.1984L115.837 87.3343H108.792Z" stroke="#2ACA4B" stroke-miterlimit="10"/>
<path d="M108.792 99.6063L105.267 93.4704L108.792 87.3344H115.837L119.361 93.4704L115.837 99.6063H108.792Z" stroke="#2ACA4B" stroke-miterlimit="10"/>
<path d="M87.6343 111.878L84.1099 105.742L87.6343 99.6063H94.6791L98.2034 105.742L94.6791 111.878H87.6343Z" stroke="#2ACA4B" stroke-miterlimit="10"/>
<path d="M98.2111 105.742L94.6906 99.6063L98.2111 93.4703H105.26L108.78 99.6063L105.26 105.742H98.2111Z" stroke="#2ACA4B" stroke-miterlimit="10"/>
<path d="M98.2111 118.014L94.6906 111.878L98.2111 105.742H105.26L108.78 111.878L105.26 118.014H98.2111Z" stroke="#2ACA4B" stroke-miterlimit="10"/>
<path d="M119.369 93.4703L115.844 87.3344L119.369 81.1984H126.413L129.938 87.3344L126.413 93.4703H119.369Z" stroke="#2ACA4B" stroke-miterlimit="10"/>
<path d="M119.369 105.742L115.844 99.6063L119.369 93.4703H126.413L129.938 99.6063L126.413 105.742H119.369Z" stroke="#2ACA4B" stroke-miterlimit="10"/>
<path d="M129.949 99.6063L126.425 93.4704L129.949 87.3344H136.994L140.519 93.4704L136.994 99.6063H129.949Z" stroke="#2ACA4B" stroke-miterlimit="10"/>
<path d="M129.949 111.878L126.425 105.742L129.949 99.6063H136.994L140.519 105.742L136.994 111.878H129.949Z" stroke="#2ACA4B" stroke-miterlimit="10"/>
<path d="M108.792 111.878L105.267 105.742L108.792 99.6063H115.837L119.361 105.742L115.837 111.878H108.792Z" stroke="#2ACA4B" stroke-miterlimit="10"/>
<path d="M108.792 124.15L105.267 118.014L108.792 111.878H115.837L119.361 118.014L115.837 124.15H108.792Z" stroke="#2ACA4B" stroke-miterlimit="10"/>
<path d="M119.369 118.014L115.844 111.878L119.369 105.742H126.413L129.938 111.878L126.413 118.014H119.369Z" stroke="#2ACA4B" stroke-miterlimit="10"/>
<path d="M119.369 130.286L115.844 124.15L119.369 118.014H126.413L129.938 124.15L126.413 130.286H119.369Z" stroke="#2ACA4B" stroke-miterlimit="10"/>
<path d="M87.6343 75.0625L84.1099 68.9265L87.6343 62.7906H94.6791L98.2034 68.9265L94.6791 75.0625H87.6343Z" stroke="#2ACA4B" stroke-miterlimit="10"/>
<path d="M77.0536 81.1984L73.5331 75.0625L77.0536 68.9265H84.1023L87.6228 75.0625L84.1023 81.1984H77.0536Z" stroke="#2ACA4B" stroke-miterlimit="10"/>
<path d="M77.0536 118.014L73.5331 111.878L77.0536 105.742H84.1023L87.6228 111.878L84.1023 118.014H77.0536Z" stroke="#2ACA4B" stroke-miterlimit="10"/>
<path d="M77.0536 130.286L73.5331 124.15L77.0536 118.014H84.1023L87.6228 124.15L84.1023 130.286H77.0536Z" stroke="#2ACA4B" stroke-miterlimit="10"/>
<path d="M87.6343 124.15L84.1099 118.014L87.6343 111.878H94.6791L98.2034 118.014L94.6791 124.15H87.6343Z" stroke="#2ACA4B" stroke-miterlimit="10"/>
<path d="M45.3192 124.15L41.7949 118.014L45.3192 111.878H52.364L55.8884 118.014L52.364 124.15H45.3192Z" stroke="#2ACA4B" stroke-miterlimit="10"/>
<path d="M55.8961 130.286L52.3755 124.15L55.8961 118.014H62.9447L66.4652 124.15L62.9447 130.286H55.8961Z" stroke="#2ACA4B" stroke-miterlimit="10"/>
<path d="M350.625 68.7271L336.282 76.9608L321.939 68.7271V52.2598L336.282 44.0222L350.625 52.2598V68.7271Z" stroke="#DA514A" stroke-miterlimit="10"/>
<path d="M301.779 156.272L295.375 159.95L288.97 156.272V148.92L295.375 145.242L301.779 148.92V156.272Z" fill="#007CFF"/>
<path d="M23.4599 122.233L19.9355 116.097L23.4599 109.961H30.5047L34.029 116.097L30.5047 122.233H23.4599Z" stroke="#2ACA4B" stroke-miterlimit="10"/>
<path d="M4.64934 17.5034L1.125 11.3675L4.64934 5.23151H11.6942L15.2185 11.3675L11.6942 17.5034H4.64934Z" fill="#F9A5E4"/>
<path d="M40.1381 175.531L25.7954 183.769L11.4564 175.531V159.064L25.7954 150.83L40.1381 159.064V175.531Z" stroke="#DA514A" stroke-miterlimit="10"/>
<path d="M46.3125 163.62L39.9081 167.297L33.5037 163.62V156.268L39.9081 152.59L46.3125 156.268V163.62Z" fill="#007CFF"/>
</g>
</svg>
